<?xml version="1.0" encoding="UTF-8" standalone="no"?>
<!-- Created with Inkscape (http://www.inkscape.org/) -->

<svg
   width="126.90425mm"
   height="129.93227mm"
   viewBox="0 0 126.90425 129.93227"
   version="1.1"
   id="svg1"
   sodipodi:docname="icon.svg"
   inkscape:version="1.4 (86a8ad7, 2024-10-11)"
   xmlns:inkscape="http://www.inkscape.org/namespaces/inkscape"
   xmlns:sodipodi="http://sodipodi.sourceforge.net/DTD/sodipodi-0.dtd"
   xmlns="http://www.w3.org/2000/svg"
   xmlns:svg="http://www.w3.org/2000/svg">
  <sodipodi:namedview
     id="namedview1"
     pagecolor="#ffffff"
     bordercolor="#000000"
     borderopacity="0.25"
     inkscape:showpageshadow="2"
     inkscape:pageopacity="0.0"
     inkscape:pagecheckerboard="0"
     inkscape:deskcolor="#d1d1d1"
     inkscape:document-units="mm"
     inkscape:zoom="0.82165407"
     inkscape:cx="244.6285"
     inkscape:cy="214.8106"
     inkscape:window-width="1920"
     inkscape:window-height="1009"
     inkscape:window-x="-8"
     inkscape:window-y="-8"
     inkscape:window-maximized="1"
     inkscape:current-layer="svg1" />
  <defs
     id="defs1" />
  <g
     id="layer1"
     transform="translate(-41.547876,-83.533872)">
    <path
       style="font-size:50.8px;font-family:Arial;-inkscape-font-specification:Arial;fill:#5aa02c;stroke:#000000;stroke-width:1.32292;stroke-linecap:round"
       d="m 75.855534,210.82823 2.23242,-3.86667 c -1.792773,-1.35966 -3.120036,-2.69879 -3.981787,-4.0174 -0.839156,-1.32466 -1.301677,-2.93787 -1.387563,-4.83963 -0.07156,-1.8935 0.399827,-3.88406 1.414171,-5.97167 l 4.309823,1.51444 c -0.898151,2.25019 -1.248838,4.08129 -1.052068,5.49334 0.294645,2.0032 1.155508,3.52178 2.582579,4.55574 l 7.106545,-12.3089 c -1.415989,-1.21851 -2.685894,-2.77275 -3.809695,-4.66273 -0.834725,-1.39847 -1.237236,-2.90067 -1.207525,-4.50655 0.04403,-1.59762 0.512533,-3.16977 1.405503,-4.71644 1.5875,-2.74963 3.847038,-4.4143 6.778615,-4.99402 1.964667,-0.39327 4.303144,0.0212 7.015427,1.24344 l 1.0666,-1.84741 2.277041,1.31465 -1.066601,1.84741 c 2.124371,1.51293 3.526991,3.20109 4.207861,5.06448 0.87959,2.37911 0.78431,4.89232 -0.28586,7.53965 l -4.34282,-1.70535 c 0.647302,-1.65032 0.837275,-3.0873 0.569924,-4.31096 -0.244757,-1.22971 -0.922841,-2.33725 -2.034265,-3.32263 l -6.436815,11.14889 c 1.666537,1.6114 2.736307,2.73504 3.209332,3.37094 0.897045,1.22441 1.505956,2.43522 1.826752,3.63245 0.320795,1.19723 0.379899,2.43432 0.177306,3.71126 -0.188269,1.28521 -0.633804,2.53646 -1.336604,3.75374 -1.54616,2.67803 -3.688104,4.42015 -6.425829,5.22634 -2.73772,0.80622 -5.497119,0.49242 -8.278202,-0.94139 l -2.257225,3.90963 z m 19.54609,-33.85482 c -1.635987,-0.63903 -3.171898,-0.72381 -4.607715,-0.25434 -1.421502,0.47773 -2.516724,1.38253 -3.285669,2.71438 -0.760675,1.31753 -1.032144,2.63109 -0.814412,3.94066 0.232066,1.31785 1.075877,2.75021 2.531431,4.29708 z m -13.151475,28.03762 c 1.611183,0.68199 3.22615,0.74558 4.844904,0.19078 1.633063,-0.54653 2.925024,-1.64325 3.875869,-3.29016 0.810285,-1.40346 1.108484,-2.73023 0.894577,-3.98031 -0.191312,-1.25614 -1.130931,-2.82019 -2.818865,-4.69217 z"
       id="text1"
       aria-label="$" />
    <path
       id="path13"
       style="fill:#1a1a1a;stroke-width:1.32292;stroke-linecap:round"
       d="m 150.62353,85.488765 c -6.97028,-4.024317 -15.88317,-1.636115 -19.90746,5.334187 l -1.57754,-0.910795 c -9.83465,-5.67804 -21.83834,-3.940771 -29.656321,3.482851 L 81.452304,124.62372 c -5.42548,9.39721 -15.950587,13.90391 -26.021338,12.09039 -4.787918,0.0124 -9.429638,2.46989 -12.005728,6.93181 -3.85657,6.67977 -1.583473,15.16169 5.096307,19.01827 l 84.739545,48.9244 c 6.67979,3.85657 15.1619,1.58417 19.01847,-5.0956 2.47397,-4.28505 2.40889,-9.30456 0.29235,-13.37588 -7.0623,-7.82361 -8.62519,-19.5537 -3.05729,-29.19759 l 18.43273,-31.92642 c 2.09494,-10.24274 -2.41349,-21.06809 -11.98963,-26.59688 4.02431,-6.970281 1.63611,-15.883172 -5.33419,-19.907455 z" />
  </g>
  <path
     style="fill:#ffd42a;stroke-width:5;stroke-linecap:round"
     d="m 363.9001,489.91738 c -5.14776,-1.00905 -9.22517,-2.37249 -13.69189,-4.57843 -1.8408,-0.9091 -34.42751,-19.59725 -72.4149,-41.52922 C 239.80591,421.87776 203.18009,400.74498 196.40261,396.848 175.07356,384.58402 159.60678,375.66998 154.56626,372.73629 151.88874,371.1779 121.35582,353.52772 86.715326,333.51367 52.074835,313.4996 22.637264,296.28801 21.298501,295.26567 8.9795612,285.8584 1.4309364,271.78541 0.50216145,256.49481 -0.90391528,233.34629 13.88901,211.50539 35.903187,204.22722 c 7.259437,-2.40006 14.260589,-3.32741 19.262353,-2.55143 24.529915,3.80558 50.49407,-2.71113 70.86855,-17.78721 5.77436,-4.27272 15.66613,-14.37599 19.78848,-20.21155 1.88478,-2.66808 18.95789,-31.8241 37.94025,-64.791132 32.66325,-56.726912 34.7275,-60.145393 38.50784,-63.770327 10.15458,-9.737146 26.69834,-18.062741 42.62245,-21.449615 7.73599,-1.645355 22.24956,-2.22738 30.31868,-1.215844 12.2097,1.530593 23.68378,5.363682 35.10943,11.728823 3.62119,2.017343 6.78961,3.426793 7.04092,3.13211 0.25131,-0.294683 1.89251,-2.509366 3.64711,-4.921519 7.07669,-9.728747 17.81757,-16.969764 30.1932,-20.3548791 6.57335,-1.79801453 19.84097,-1.93175785 26.11533,-0.2632537 16.26297,4.3247228 29.11131,14.6478968 36.42178,29.2635658 7.4274,14.849471 7.57181,33.025668 0.37574,47.295743 -0.96565,1.91493 -1.75573,3.728814 -1.75573,4.030851 0,0.302037 2.12224,1.943677 4.7161,3.648086 20.55337,13.505538 35.08572,34.983531 40.35099,59.636471 1.7281,8.09129 2.2188,23.29709 1.00762,31.22445 l -0.89745,5.87402 -35.59624,61.67265 c -19.57793,33.91996 -36.47196,63.41621 -37.54231,65.54723 -3.05782,6.08801 -6.59994,17.4532 -8.00909,25.69788 -1.65602,9.68909 -1.36742,25.40696 0.63802,34.74841 3.22503,15.02234 10.84967,30.67653 20.29886,41.67572 6.31021,7.34529 9.44245,24.2289 6.8135,36.7265 -4.08543,19.42148 -19.46522,35.50446 -38.6367,40.40325 -5.45516,1.39393 -16.27663,1.74516 -21.60277,0.70116 z"
     id="path1"
     transform="scale(0.26458333)" />
</svg>
